<?xml version="1.0" encoding="utf-8"?>
<!-- Generator: Adobe Illustrator 18.0.0, SVG Export Plug-In . SVG Version: 6.00 Build 0)  -->
<!DOCTYPE svg PUBLIC "-//W3C//DTD SVG 1.1//EN" "http://www.w3.org/Graphics/SVG/1.1/DTD/svg11.dtd">
<svg version="1.1" id="Layer_1" xmlns="http://www.w3.org/2000/svg" xmlns:xlink="http://www.w3.org/1999/xlink" x="0px" y="0px"
	 viewBox="0 0 127.6 127.6" enable-background="new 0 0 127.6 127.6" xml:space="preserve">
<path fill="#302F2F" d="M96.5,121.1c0,0,0.9,1.8,0.8,2.7c-0.1,0.8-3.6,1.3-6.7,1.3c-3.1,0-6.2-1.4-6.2-1.4l-5.4-13
	c0,0-4.6,4.8-8,5.5c3.3,0.7,9.2-2.6,11,6c0.5,2.6-18.1,1.7-25.6,1.7c-7.5,0-18.6-0.9-22.6-3c-2-1,2.2-7.8,2.2-7.8s-6.8,7.4-13.5,6.3
	c-6.7-1-11.2-8.8-12.2-12.7c-1-4-2.6-11.4,1.8-18.7l0.7,2.2c0,0,1.7-9.8,7.8-12c-1.2,2.1-2.4,4.3-2.4,4.3s5.8-8,15.6-5.5
	c-6.5,3.2-9.7,11.8-9.7,11.8l2.2-0.7c0,0-0.6,0.8-1.5,2.2c-0.9,1.4-2.2,4.5,0.2,4.5c2.5,0,9.9-17.6,16.2-21.8
	c6.3-4.2,14.9-17.5,14.9-17.5l-2.8,2.1c0,0,0.2-5.2,1.4-10.1c1.1-4.8,3.2-7.4,3.2-7.4l-3.6,3.2c0,0,4.6-16.2,15.1-24.2
	c0.5-0.4,1.4-0.8,1.4-0.8s-0.2-9.7,2-11.6c2.2-2,5.1,5.9,5.1,5.9l1-0.1c1.9-1,7.7-2.3,7.7-2.3s3.8-7.4,5-7.5
	c1.3-0.1,2.6,7.1,2.6,7.1s5.6,1.1,7.3,2.6c4.8,4.4,4.8,7.4,7.1,8.3c2.3,0.9,8.5,1.8,10.6,3.2c2.1,1.4,3.5,17.7-9,21.9
	c-0.2,3.7,4.3,9.6,5.5,19.8c0.5,4.1-1.7,14.4-1.7,14.4l-2-3.1c0,0-0.7,7.2-4.6,12.2c-0.8,1-3.7,3.5-3.7,3.5l-0.8-2.3
	c0,0-5.7,4-6.6,6.1c-2.4,5.4-1.4,12.5,0.1,13.7c3.8,2.9,6.8,3.9,6.8,5.8c0,1.8,0,4.5,0,4.5s-0.3,1.2-3.6,1
	C96.5,121.1,96.5,121.1,96.5,121.1"/>
</svg>
