<?xml version="1.0" standalone="no"?>
<!DOCTYPE svg PUBLIC "-//W3C//DTD SVG 20010904//EN"
 "http://www.w3.org/TR/2001/REC-SVG-20010904/DTD/svg10.dtd">
<svg version="1.0" xmlns="http://www.w3.org/2000/svg"
 width="700.000000pt" height="700.000000pt" viewBox="0 0 700.000000 700.000000"
 preserveAspectRatio="xMidYMid meet">
<metadata>
Created by potrace 1.11, written by Peter Selinger 2001-2013
</metadata>
<g transform="translate(0.000000,700.000000) scale(0.100000,-0.100000)"
fill="#000000" stroke="none">
<path d="M4983 6818 c-16 -18 -51 -65 -76 -104 -40 -64 -62 -101 -130 -224
-10 -19 -22 -39 -26 -43 -4 -4 -75 -25 -157 -47 -82 -21 -171 -48 -197 -59
-27 -12 -65 -24 -85 -27 l-37 -6 -29 69 c-65 149 -157 273 -205 273 -91 0
-146 -198 -155 -557 l-2 -92 -64 -43 c-122 -81 -310 -285 -436 -473 -151 -225
-300 -538 -393 -823 l-10 -33 47 39 c26 22 61 53 77 68 17 16 39 36 50 44 18
14 18 13 -2 -15 -74 -107 -144 -305 -179 -505 -3 -14 -9 -47 -14 -75 -10 -54
-16 -110 -25 -220 -3 -38 -8 -80 -11 -92 -2 -13 0 -23 4 -23 5 0 40 23 77 52
l69 52 -24 -40 c-14 -21 -28 -43 -32 -49 -5 -5 -59 -80 -120 -165 -239 -332
-434 -550 -616 -688 -135 -104 -215 -193 -337 -377 -33 -49 -63 -92 -66 -95
-5 -5 -296 -480 -329 -540 -31 -54 -121 -168 -145 -184 -31 -20 -73 -16 -91 9
-34 47 -3 151 80 271 25 35 42 64 37 64 -4 0 -29 -6 -54 -14 -27 -8 -47 -10
-47 -5 0 21 92 195 144 272 99 146 194 245 310 321 64 42 66 44 39 50 -66 14
-232 18 -298 7 -168 -29 -322 -111 -453 -238 -25 -24 -47 -43 -49 -43 -5 0 28
60 84 158 l25 43 -28 -13 c-161 -69 -311 -290 -380 -557 -10 -39 -21 -71 -24
-71 -3 0 -12 24 -20 52 l-15 53 -36 -70 c-40 -77 -86 -198 -94 -248 -3 -18
-10 -57 -16 -87 -17 -84 -14 -311 5 -425 39 -224 93 -368 199 -522 166 -243
373 -375 586 -375 47 1 93 3 101 5 8 2 29 7 45 11 54 13 159 59 213 93 29 18
55 33 58 33 12 0 158 117 216 172 27 26 32 22 10 -9 -48 -70 -121 -249 -124
-303 -2 -60 2 -68 45 -89 45 -22 185 -64 247 -75 19 -3 46 -8 60 -11 29 -6
132 -21 205 -30 28 -3 66 -7 85 -10 19 -2 76 -7 127 -10 51 -4 105 -8 120 -10
54 -6 711 -18 1018 -18 507 0 702 20 751 74 15 16 14 22 -1 75 -19 65 -53 143
-71 161 -7 7 -21 24 -32 37 -23 31 -83 62 -141 75 -24 5 -109 8 -189 5 -144
-4 -164 2 -90 25 63 21 202 119 316 226 24 22 47 41 51 43 4 1 14 -15 23 -35
23 -53 74 -177 163 -393 129 -311 108 -276 179 -299 142 -47 296 -64 426 -46
19 2 51 6 70 9 50 6 91 17 121 32 23 11 26 19 24 48 -2 18 -11 50 -19 71 -21
49 -20 55 7 49 12 -3 74 -7 137 -9 102 -5 120 -3 158 16 l42 21 1 102 c1 146
-1 177 -17 207 -17 35 -68 75 -226 180 -84 56 -135 97 -151 122 -65 99 -78
343 -32 577 7 35 53 152 69 175 31 46 141 148 242 225 49 39 93 70 96 70 8 0
43 -101 40 -113 -11 -38 194 161 245 238 101 152 178 359 210 568 3 20 8 37
12 36 3 0 28 -35 55 -77 48 -75 49 -76 57 -49 4 15 10 49 14 75 3 26 10 65 15
87 11 53 22 123 46 300 13 99 15 269 4 336 -6 41 -14 88 -16 104 -3 17 -14 69
-25 117 -11 48 -20 90 -20 93 1 9 -89 267 -148 424 -65 172 -80 220 -85 269
-3 32 -2 34 80 73 211 101 352 262 430 493 79 231 74 573 -8 663 -22 24 -131
69 -215 88 -122 29 -338 87 -369 100 -55 23 -77 46 -156 165 -108 161 -219
284 -294 323 -65 34 -271 99 -336 106 -8 1 -17 27 -24 68 -28 159 -93 323
-127 323 -7 0 -27 -15 -44 -32z"/>
</g>
</svg>
